<mxfile host="app.diagrams.net" modified="2022-07-06T07:50:04.882Z" agent="5.0 (Windows NT 10.0; Win64; x64) AppleWebKit/537.36 (KHTML, like Gecko) Chrome/103.0.0.0 Safari/537.36" etag="r33-epyeAJbjajJrTzgt" version="20.0.4" type="github">
  <diagram id="mNUrFVFDp84M8y5VHnX-" name="第 1 页">
    <mxGraphModel dx="1550" dy="835" grid="1" gridSize="10" guides="1" tooltips="1" connect="1" arrows="1" fold="1" page="1" pageScale="1" pageWidth="1500" pageHeight="2569" math="0" shadow="0">
      <root>
        <mxCell id="0" />
        <mxCell id="1" parent="0" />
        <mxCell id="bbwarOqlnp68-i9IA4N3-29" style="edgeStyle=orthogonalEdgeStyle;rounded=0;orthogonalLoop=1;jettySize=auto;html=1;exitX=0.5;exitY=1;exitDx=0;exitDy=0;" edge="1" parent="1" source="bbwarOqlnp68-i9IA4N3-1" target="bbwarOqlnp68-i9IA4N3-26">
          <mxGeometry relative="1" as="geometry" />
        </mxCell>
        <mxCell id="bbwarOqlnp68-i9IA4N3-1" value="测试人员登录账号A，获取cookie-a，添加至系统" style="rounded=0;whiteSpace=wrap;html=1;" vertex="1" parent="1">
          <mxGeometry x="350" y="180" width="110" height="60" as="geometry" />
        </mxCell>
        <mxCell id="bbwarOqlnp68-i9IA4N3-10" value="" style="edgeStyle=orthogonalEdgeStyle;rounded=0;orthogonalLoop=1;jettySize=auto;html=1;" edge="1" parent="1" source="bbwarOqlnp68-i9IA4N3-2" target="bbwarOqlnp68-i9IA4N3-9">
          <mxGeometry relative="1" as="geometry" />
        </mxCell>
        <mxCell id="bbwarOqlnp68-i9IA4N3-30" style="edgeStyle=orthogonalEdgeStyle;rounded=0;orthogonalLoop=1;jettySize=auto;html=1;exitX=0.5;exitY=1;exitDx=0;exitDy=0;entryX=0.5;entryY=0;entryDx=0;entryDy=0;" edge="1" parent="1" source="bbwarOqlnp68-i9IA4N3-2" target="bbwarOqlnp68-i9IA4N3-26">
          <mxGeometry relative="1" as="geometry" />
        </mxCell>
        <mxCell id="bbwarOqlnp68-i9IA4N3-2" value="测试人员登录账号B，访问各功能点，代理扫描记录响应" style="rounded=0;whiteSpace=wrap;html=1;" vertex="1" parent="1">
          <mxGeometry x="580" y="180" width="110" height="60" as="geometry" />
        </mxCell>
        <mxCell id="bbwarOqlnp68-i9IA4N3-11" value="" style="edgeStyle=orthogonalEdgeStyle;rounded=0;orthogonalLoop=1;jettySize=auto;html=1;" edge="1" parent="1" source="bbwarOqlnp68-i9IA4N3-4" target="bbwarOqlnp68-i9IA4N3-9">
          <mxGeometry relative="1" as="geometry" />
        </mxCell>
        <mxCell id="bbwarOqlnp68-i9IA4N3-4" value="代理扫描使用无cookie访问并记录响应" style="rounded=0;whiteSpace=wrap;html=1;" vertex="1" parent="1">
          <mxGeometry x="770" y="180" width="100" height="60" as="geometry" />
        </mxCell>
        <mxCell id="bbwarOqlnp68-i9IA4N3-6" value="A/B为平行权限" style="text;html=1;align=center;verticalAlign=middle;resizable=0;points=[];autosize=1;strokeColor=none;fillColor=none;" vertex="1" parent="1">
          <mxGeometry x="470" y="180" width="100" height="30" as="geometry" />
        </mxCell>
        <mxCell id="bbwarOqlnp68-i9IA4N3-8" value="" style="endArrow=none;html=1;rounded=0;entryX=0;entryY=0.5;entryDx=0;entryDy=0;exitX=1;exitY=0.5;exitDx=0;exitDy=0;" edge="1" parent="1" source="bbwarOqlnp68-i9IA4N3-1" target="bbwarOqlnp68-i9IA4N3-2">
          <mxGeometry width="50" height="50" relative="1" as="geometry">
            <mxPoint x="490" y="209.5" as="sourcePoint" />
            <mxPoint x="550" y="209.5" as="targetPoint" />
          </mxGeometry>
        </mxCell>
        <mxCell id="bbwarOqlnp68-i9IA4N3-13" style="edgeStyle=orthogonalEdgeStyle;rounded=0;orthogonalLoop=1;jettySize=auto;html=1;exitX=1;exitY=0.5;exitDx=0;exitDy=0;entryX=0;entryY=0.5;entryDx=0;entryDy=0;" edge="1" parent="1" source="bbwarOqlnp68-i9IA4N3-9">
          <mxGeometry relative="1" as="geometry">
            <mxPoint x="860" y="330" as="targetPoint" />
          </mxGeometry>
        </mxCell>
        <mxCell id="bbwarOqlnp68-i9IA4N3-23" style="edgeStyle=orthogonalEdgeStyle;rounded=0;orthogonalLoop=1;jettySize=auto;html=1;exitX=0.5;exitY=1;exitDx=0;exitDy=0;" edge="1" parent="1" source="bbwarOqlnp68-i9IA4N3-9">
          <mxGeometry relative="1" as="geometry">
            <mxPoint x="730" y="400" as="targetPoint" />
          </mxGeometry>
        </mxCell>
        <mxCell id="bbwarOqlnp68-i9IA4N3-9" value="响应是否一致" style="rhombus;whiteSpace=wrap;html=1;" vertex="1" parent="1">
          <mxGeometry x="680" y="300" width="100" height="60" as="geometry" />
        </mxCell>
        <mxCell id="bbwarOqlnp68-i9IA4N3-14" value="是" style="text;html=1;align=center;verticalAlign=middle;resizable=0;points=[];autosize=1;strokeColor=none;fillColor=none;" vertex="1" parent="1">
          <mxGeometry x="790" y="305" width="40" height="30" as="geometry" />
        </mxCell>
        <mxCell id="bbwarOqlnp68-i9IA4N3-16" style="edgeStyle=orthogonalEdgeStyle;rounded=0;orthogonalLoop=1;jettySize=auto;html=1;exitX=1;exitY=0.5;exitDx=0;exitDy=0;" edge="1" parent="1" source="bbwarOqlnp68-i9IA4N3-15">
          <mxGeometry relative="1" as="geometry">
            <mxPoint x="1020" y="330" as="targetPoint" />
          </mxGeometry>
        </mxCell>
        <mxCell id="bbwarOqlnp68-i9IA4N3-20" style="edgeStyle=orthogonalEdgeStyle;rounded=0;orthogonalLoop=1;jettySize=auto;html=1;exitX=0.5;exitY=1;exitDx=0;exitDy=0;" edge="1" parent="1" source="bbwarOqlnp68-i9IA4N3-15">
          <mxGeometry relative="1" as="geometry">
            <mxPoint x="910" y="400" as="targetPoint" />
          </mxGeometry>
        </mxCell>
        <mxCell id="bbwarOqlnp68-i9IA4N3-15" value="是否含有私有数据" style="rhombus;whiteSpace=wrap;html=1;" vertex="1" parent="1">
          <mxGeometry x="860" y="300" width="100" height="60" as="geometry" />
        </mxCell>
        <mxCell id="bbwarOqlnp68-i9IA4N3-17" value="是" style="text;html=1;align=center;verticalAlign=middle;resizable=0;points=[];autosize=1;strokeColor=none;fillColor=none;" vertex="1" parent="1">
          <mxGeometry x="960" y="295" width="40" height="30" as="geometry" />
        </mxCell>
        <mxCell id="bbwarOqlnp68-i9IA4N3-19" value="判断为未授权访问" style="rounded=0;whiteSpace=wrap;html=1;" vertex="1" parent="1">
          <mxGeometry x="1020" y="300" width="100" height="50" as="geometry" />
        </mxCell>
        <mxCell id="bbwarOqlnp68-i9IA4N3-21" value="否" style="text;html=1;align=center;verticalAlign=middle;resizable=0;points=[];autosize=1;strokeColor=none;fillColor=none;" vertex="1" parent="1">
          <mxGeometry x="900" y="355" width="40" height="30" as="geometry" />
        </mxCell>
        <mxCell id="bbwarOqlnp68-i9IA4N3-22" value="公共页面无漏洞" style="rounded=0;whiteSpace=wrap;html=1;" vertex="1" parent="1">
          <mxGeometry x="870" y="400" width="90" height="40" as="geometry" />
        </mxCell>
        <mxCell id="bbwarOqlnp68-i9IA4N3-24" value="否" style="text;html=1;align=center;verticalAlign=middle;resizable=0;points=[];autosize=1;strokeColor=none;fillColor=none;" vertex="1" parent="1">
          <mxGeometry x="720" y="355" width="40" height="30" as="geometry" />
        </mxCell>
        <mxCell id="bbwarOqlnp68-i9IA4N3-32" style="edgeStyle=orthogonalEdgeStyle;rounded=0;orthogonalLoop=1;jettySize=auto;html=1;exitX=0;exitY=0.5;exitDx=0;exitDy=0;" edge="1" parent="1" source="bbwarOqlnp68-i9IA4N3-25">
          <mxGeometry relative="1" as="geometry">
            <mxPoint x="520" y="430" as="targetPoint" />
          </mxGeometry>
        </mxCell>
        <mxCell id="bbwarOqlnp68-i9IA4N3-25" value="无未授权问题，进入越权检测" style="rounded=0;whiteSpace=wrap;html=1;" vertex="1" parent="1">
          <mxGeometry x="670" y="400" width="120" height="60" as="geometry" />
        </mxCell>
        <mxCell id="bbwarOqlnp68-i9IA4N3-34" style="edgeStyle=orthogonalEdgeStyle;rounded=0;orthogonalLoop=1;jettySize=auto;html=1;exitX=0.5;exitY=1;exitDx=0;exitDy=0;entryX=0.5;entryY=0;entryDx=0;entryDy=0;" edge="1" parent="1" source="bbwarOqlnp68-i9IA4N3-26" target="bbwarOqlnp68-i9IA4N3-33">
          <mxGeometry relative="1" as="geometry" />
        </mxCell>
        <mxCell id="bbwarOqlnp68-i9IA4N3-37" style="edgeStyle=orthogonalEdgeStyle;rounded=0;orthogonalLoop=1;jettySize=auto;html=1;exitX=1;exitY=0.5;exitDx=0;exitDy=0;entryX=0;entryY=0.5;entryDx=0;entryDy=0;" edge="1" parent="1" source="bbwarOqlnp68-i9IA4N3-26" target="bbwarOqlnp68-i9IA4N3-39">
          <mxGeometry relative="1" as="geometry">
            <mxPoint x="640" y="510" as="targetPoint" />
          </mxGeometry>
        </mxCell>
        <mxCell id="bbwarOqlnp68-i9IA4N3-26" value="响应是否一致" style="rhombus;whiteSpace=wrap;html=1;" vertex="1" parent="1">
          <mxGeometry x="470" y="500" width="90" height="60" as="geometry" />
        </mxCell>
        <mxCell id="bbwarOqlnp68-i9IA4N3-27" style="edgeStyle=orthogonalEdgeStyle;rounded=0;orthogonalLoop=1;jettySize=auto;html=1;exitX=0.5;exitY=1;exitDx=0;exitDy=0;" edge="1" parent="1" source="bbwarOqlnp68-i9IA4N3-26" target="bbwarOqlnp68-i9IA4N3-26">
          <mxGeometry relative="1" as="geometry" />
        </mxCell>
        <mxCell id="bbwarOqlnp68-i9IA4N3-33" value="无水平越权" style="rounded=0;whiteSpace=wrap;html=1;" vertex="1" parent="1">
          <mxGeometry x="455" y="610" width="120" height="40" as="geometry" />
        </mxCell>
        <mxCell id="bbwarOqlnp68-i9IA4N3-35" value="否" style="text;html=1;align=center;verticalAlign=middle;resizable=0;points=[];autosize=1;strokeColor=none;fillColor=none;" vertex="1" parent="1">
          <mxGeometry x="510" y="570" width="40" height="30" as="geometry" />
        </mxCell>
        <mxCell id="bbwarOqlnp68-i9IA4N3-36" value="判断为水平越权" style="rounded=0;whiteSpace=wrap;html=1;" vertex="1" parent="1">
          <mxGeometry x="820" y="510" width="120" height="40" as="geometry" />
        </mxCell>
        <mxCell id="bbwarOqlnp68-i9IA4N3-38" value="是" style="text;html=1;align=center;verticalAlign=middle;resizable=0;points=[];autosize=1;strokeColor=none;fillColor=none;" vertex="1" parent="1">
          <mxGeometry x="590" y="500" width="40" height="30" as="geometry" />
        </mxCell>
        <mxCell id="bbwarOqlnp68-i9IA4N3-40" style="edgeStyle=orthogonalEdgeStyle;rounded=0;orthogonalLoop=1;jettySize=auto;html=1;exitX=1;exitY=0.5;exitDx=0;exitDy=0;entryX=0;entryY=0.5;entryDx=0;entryDy=0;" edge="1" parent="1" source="bbwarOqlnp68-i9IA4N3-39" target="bbwarOqlnp68-i9IA4N3-36">
          <mxGeometry relative="1" as="geometry" />
        </mxCell>
        <mxCell id="bbwarOqlnp68-i9IA4N3-44" style="edgeStyle=orthogonalEdgeStyle;rounded=0;orthogonalLoop=1;jettySize=auto;html=1;exitX=0.5;exitY=1;exitDx=0;exitDy=0;entryX=0.5;entryY=0;entryDx=0;entryDy=0;" edge="1" parent="1" source="bbwarOqlnp68-i9IA4N3-39" target="bbwarOqlnp68-i9IA4N3-43">
          <mxGeometry relative="1" as="geometry" />
        </mxCell>
        <mxCell id="bbwarOqlnp68-i9IA4N3-39" value="cookie-a响应是否含有B账号私有数据" style="rhombus;whiteSpace=wrap;html=1;" vertex="1" parent="1">
          <mxGeometry x="650" y="500" width="110" height="60" as="geometry" />
        </mxCell>
        <mxCell id="bbwarOqlnp68-i9IA4N3-41" value="是" style="text;html=1;align=center;verticalAlign=middle;resizable=0;points=[];autosize=1;strokeColor=none;fillColor=none;" vertex="1" parent="1">
          <mxGeometry x="750" y="500" width="40" height="30" as="geometry" />
        </mxCell>
        <mxCell id="bbwarOqlnp68-i9IA4N3-43" value="无水平越权" style="rounded=0;whiteSpace=wrap;html=1;" vertex="1" parent="1">
          <mxGeometry x="645" y="610" width="120" height="40" as="geometry" />
        </mxCell>
        <mxCell id="bbwarOqlnp68-i9IA4N3-45" value="否" style="text;html=1;align=center;verticalAlign=middle;resizable=0;points=[];autosize=1;strokeColor=none;fillColor=none;" vertex="1" parent="1">
          <mxGeometry x="700" y="570" width="40" height="30" as="geometry" />
        </mxCell>
      </root>
    </mxGraphModel>
  </diagram>
</mxfile>
